<mxfile host="65bd71144e">
    <diagram id="5kVoTvBUrwB6dsUd62jj" name="PÃ¡gina-1">
        <mxGraphModel dx="650" dy="516" grid="1" gridSize="10" guides="1" tooltips="1" connect="1" arrows="1" fold="1" page="1" pageScale="1" pageWidth="827" pageHeight="1169" math="0" shadow="0">
            <root>
                <mxCell id="0"/>
                <mxCell id="1" parent="0"/>
                <mxCell id="4" value="" style="edgeStyle=none;html=1;fontFamily=Helvetica;fontSize=12;fontColor=#000000;strokeColor=#000000;rounded=0;" parent="1" source="2" target="3" edge="1">
                    <mxGeometry relative="1" as="geometry"/>
                </mxCell>
                <mxCell id="2" value="&lt;font color=&quot;#000000&quot;&gt;INICIO&lt;/font&gt;" style="ellipse;whiteSpace=wrap;html=1;strokeColor=#000000;fillColor=#FF9999;gradientColor=none;shadow=0;rounded=0;" parent="1" vertex="1">
                    <mxGeometry x="240" y="80" width="80" height="40" as="geometry"/>
                </mxCell>
                <mxCell id="6" value="" style="edgeStyle=none;html=1;fontFamily=Helvetica;fontSize=12;fontColor=#000000;strokeColor=#000000;rounded=0;" parent="1" source="3" target="5" edge="1">
                    <mxGeometry relative="1" as="geometry"/>
                </mxCell>
                <mxCell id="3" value="n" style="shape=parallelogram;perimeter=parallelogramPerimeter;whiteSpace=wrap;html=1;fixedSize=1;fillColor=#FFFF99;strokeColor=#000000;gradientColor=none;shadow=0;fontColor=#000000;rounded=0;" parent="1" vertex="1">
                    <mxGeometry x="240" y="160" width="80" height="40" as="geometry"/>
                </mxCell>
                <mxCell id="8" value="" style="edgeStyle=none;html=1;fontFamily=Helvetica;fontSize=12;fontColor=#000000;strokeColor=#000000;rounded=0;" parent="1" source="5" target="7" edge="1">
                    <mxGeometry relative="1" as="geometry"/>
                </mxCell>
                <mxCell id="5" value="&lt;div&gt;digito1 = (n % 10000) // 1000&lt;/div&gt;&lt;div&gt;digito2 = (n % 1000) // 100&lt;/div&gt;&lt;div&gt;digito3 = (n % 100) // 10&lt;/div&gt;&lt;div&gt;digito4 = n % 10&lt;/div&gt;" style="whiteSpace=wrap;html=1;fillColor=#9999FF;strokeColor=default;gradientColor=none;shadow=0;fontColor=#000000;rounded=0;" parent="1" vertex="1">
                    <mxGeometry x="190" y="240" width="180" height="80" as="geometry"/>
                </mxCell>
                <mxCell id="10" value="" style="edgeStyle=none;html=1;fontFamily=Helvetica;fontSize=12;fontColor=#000000;strokeColor=#000000;rounded=0;" parent="1" source="7" target="9" edge="1">
                    <mxGeometry relative="1" as="geometry"/>
                </mxCell>
                <mxCell id="7" value="digit4, digit3, digit2, digit1" style="shape=document;whiteSpace=wrap;html=1;boundedLbl=1;fillColor=#FFFF99;strokeColor=#000000;gradientColor=none;shadow=0;fontColor=#000000;rounded=0;" parent="1" vertex="1">
                    <mxGeometry x="200" y="360" width="160" height="60" as="geometry"/>
                </mxCell>
                <mxCell id="9" value="FIN" style="ellipse;whiteSpace=wrap;html=1;fillColor=#FF9999;strokeColor=#000000;fontColor=#000000;gradientColor=none;shadow=0;rounded=0;" parent="1" vertex="1">
                    <mxGeometry x="240" y="460" width="80" height="40" as="geometry"/>
                </mxCell>
            </root>
        </mxGraphModel>
    </diagram>
</mxfile>